<svg xmlns="http://www.w3.org/2000/svg" width="31" height="31" viewBox="0 0 31 31"><g><g><path fill="#be9843" d="M10.813 3v15.939c0 .49-.4.782-.786.782a.76.76 0 0 1-.536-.22l-1.499-1.435a1.535 1.535 0 0 0-1.07-.432c-.426 0-.838.18-1.13.493a1.55 1.55 0 0 0 .07 2.178l4.463 4.21a3.113 3.113 0 0 0 2.143.85 3.11 3.11 0 0 0 2.159-.865l4.394-4.195c.61-.582.639-1.556.065-2.172l-.022-.023a1.549 1.549 0 0 0-2.184-.079l-1.629 1.517a.763.763 0 0 1-.527.212.777.777 0 0 1-.787-.784V3h4.688v6.25a3.129 3.129 0 0 0 3.125 3.125H28v14.08c0 .852-.693 1.545-1.545 1.545H4.545A1.547 1.547 0 0 1 3 26.455V4.545C3 3.693 3.693 3 4.545 3zM31 27.9V9.935c0-.41-.16-.795-.45-1.084L22.15.449C21.86.16 21.474 0 21.065 0H3.1C1.39 0 0 1.39 0 3.1v24.8C0 29.61 1.39 31 3.1 31h24.8c1.71 0 3.1-1.39 3.1-3.1z"/></g></g></svg>